<svg width="100" height="150" xmlns="http://www.w3.org/2000/svg">
<g>
  <g stroke="null" id="svg_12">
   <g stroke="null" transform="matrix(0.38539590687698916,0,0,0.38539590687698916,8.63733349591336e-9,0.041400861902512354) " id="svg_5">
    <path stroke="null" fill="#000000" id="svg_7" d="m180.935341,376.203062c-0.533,-2.075 -1.206,-3.729 -1.349,-5.427c-0.497,-5.913 -0.673,-11.854 -1.224,-17.761c-0.884,-9.474 0.128,-19.122 -2.721,-28.425c-1.19,-3.884 -2.134,-7.853 -2.995,-11.825c-0.762,-3.514 -0.849,-7.22 -1.957,-10.604c-1.906,-5.82 -4.443,-11.431 -6.575,-17.181c-0.9,-2.428 -1.197,-5.095 -2.221,-7.456c-0.961,-2.217 -2.279,-4.385 -3.865,-6.203c-3.234,-3.708 -4.945,-8.536 -9.603,-11.297c-2.93,-1.737 -4.592,-5.489 -7.343,-7.685c-3.039,-2.425 -5.376,-5.512 -8.258,-8.078c-2.61,-2.324 -6.388,-2.781 -8.322,-5.932c-0.373,-0.608 -1.662,-0.803 -2.562,-0.914c-3.834,-0.472 -7.693,-0.753 -11.517,-1.284c-1.895,-0.263 -4.258,-0.356 -5.491,-1.508c-2.488,-2.324 -5.528,-1.664 -8.211,-2.585c-3.941,-1.353 -7.65,-3.383 -11.453,-5.137c-0.201,-0.093 -0.364,-0.454 -0.516,-0.437c-4.571,0.521 -7.385,-3.047 -10.099,-5.411c-2.785,-2.425 -5.805,-3.33 -8.844,-4.819c-3.491,-1.711 -6.377,-4.638 -9.59,-6.947c-1.023,-0.735 -2.349,-1.049 -3.367,-1.789c-1.907,-1.385 -3.808,-2.82 -5.494,-4.458c-1.703,-1.655 -2.331,-4.833 -5.815,-3.679c-0.248,0.082 -0.799,-0.136 -0.916,-0.364c-2.18,-4.271 -6.853,-5.256 -10.27,-7.885c-6.288,-4.839 -12.092,-10.082 -15.645,-17.481c-1.738,-3.619 -5.28,-6.58 -6.263,-10.3c-1.18,-4.467 -4.657,-8.002 -4.382,-13.086c0.212,-3.931 -1.081,-7.921 -1.399,-11.91c-0.427,-5.357 -0.633,-10.735 -0.79,-16.108c-0.104,-3.553 0.157,-7.116 0.056,-10.669c-0.197,-6.962 2.705,-12.943 5.874,-18.807c2.443,-4.521 4.799,-9.173 7.884,-13.243c3.604,-4.754 7.878,-9.015 12.009,-13.348c3.803,-3.989 7.807,-7.787 11.715,-11.675c2.774,-2.76 5.562,-5.506 8.299,-8.302c6.517,-6.656 13.183,-13.115 21.406,-17.72c4.336,-2.428 8.522,-5.135 12.926,-7.428c1.789,-0.932 3.949,-1.324 5.987,-1.569c4.987,-0.6 10.004,-0.941 15,-1.469c0.768,-0.081 1.464,-0.774 2.238,-0.893c2.282,-0.351 4.59,-0.531 6.882,-0.825c2.807,-0.36 5.6,-0.843 8.413,-1.143c9.22,-0.982 18.395,-0.265 27.155,2.551c4.548,1.462 8.538,4.649 12.797,7.026c1.396,0.779 2.943,1.32 4.251,2.217c2.409,1.655 4.564,3.709 7.061,5.201c3.152,1.883 6.535,3.379 9.827,5.023c3.257,1.626 6.621,3.067 9.742,4.919c1.317,0.781 1.941,2.67 3.213,3.602c5.755,4.221 11.634,8.167 16.798,13.261c3.046,3.004 6.289,5.771 8.84,9.25c0.337,0.46 0.762,1.007 1.261,1.174c6.913,2.321 9.963,8.818 14.83,13.356c3.11,2.9 4.357,6.288 6.225,9.751c1.879,3.484 2.992,7.185 3.948,10.697c1.994,7.327 2.69,15.005 3.969,22.53c0.29,1.707 0.882,3.362 1.169,5.069c1.089,6.48 3.217,13.047 2.785,19.434c-0.312,4.62 3.121,9.28 -0.178,13.867c-0.518,0.72 0.695,2.519 0.691,3.817c-0.005,1.684 -0.397,3.373 -0.689,5.048c-0.096,0.552 -0.602,1.077 -0.577,1.599c0.205,4.412 0.807,8.834 0.629,13.226c-0.106,2.614 -1.811,5.137 -2.084,7.775c-0.889,8.6 -1.374,17.241 -2.169,25.852c-0.431,4.664 -1.098,9.31 -1.793,13.944c-1.667,11.122 -7.331,20.801 -11.207,31.131c-2.138,5.696 -3.098,11.826 -4.746,17.716c-2.447,8.747 -4.996,17.403 -10.374,25.022c-3.846,5.449 -6.885,11.462 -10.401,17.151c-1.7,2.75 -3.923,5.194 -5.469,8.017c-3.5,6.393 -6.62,12.994 -10.101,19.398c-2.622,4.823 -5.501,9.511 -8.389,14.183c-1.689,2.732 -3.601,5.328 -5.478,7.938c-0.201,0.277 -0.838,0.24 -1.168,0.322zm57.891,-251.382c-3.225,-1.678 -3.465,-5.303 -3.11,-7.969c0.435,-3.264 -0.608,-5.82 -1.519,-8.585c-0.734,-2.228 -2.457,-4.439 -2.336,-6.579c0.3,-5.327 -3.193,-8.942 -4.953,-13.326c-1.198,-2.985 -2.477,-5.775 -5.597,-7.318c-1.623,-0.803 -3.232,-1.795 -4.552,-3.02c-3.157,-2.928 -5.413,-6.89 -9.903,-8.268c-0.492,-0.151 -0.804,-1.052 -1.1,-1.654c-1.55,-3.154 -3.916,-5.138 -7.183,-6.696c-2.732,-1.303 -4.836,-3.965 -7.14,-6.109c-2.204,-2.051 -4.021,-4.666 -6.513,-6.231c-6.078,-3.819 -12.417,-7.231 -18.719,-10.683c-2.137,-1.17 -4.616,-1.739 -6.69,-2.994c-2.504,-1.515 -4.723,-3.496 -7.106,-5.218c-1.358,-0.981 -2.702,-2.09 -4.228,-2.697c-1.5,-0.596 -3.734,-0.069 -4.76,-1.005c-4.189,-3.824 -9.226,-1.57 -13.799,-2.268c-3.224,-0.492 -6.63,0.223 -9.955,0.383c-2.305,0.111 -4.677,-0.119 -6.905,0.348c-7.459,1.567 -14.924,3.168 -22.274,5.171c-4.733,1.29 -9.27,3.302 -13.885,5.015c-0.301,0.112 -0.529,0.432 -0.782,0.664c-2.182,2.005 -4.347,4.027 -6.547,6.012c-1.036,0.934 -2.156,1.774 -3.204,2.695c-3.036,2.668 -6.163,5.244 -9.058,8.059c-5.374,5.226 -10.338,10.908 -15.989,15.804c-4.193,3.632 -8.671,6.521 -12.243,11.224c-4.47,5.885 -8.189,12.039 -11.364,18.55c-2.146,4.4 -4.248,9.177 -4.729,13.951c-0.725,7.194 -0.144,14.537 0.115,21.808c0.316,8.844 1.445,17.37 5.531,25.624c3.448,6.965 6.629,13.846 12.552,19.05c3.308,2.906 6.567,5.904 10.123,8.48c3.556,2.576 7.963,4.146 11.077,7.121c3.929,3.753 8.347,6.672 12.769,9.644c3.444,2.315 7.052,4.411 10.71,6.377c5.825,3.132 9.513,9.796 16.95,10.235c4.435,4.51 11.041,2.389 16.1,5.29c2.623,1.504 5.869,2.781 8.797,2.708c5.71,-0.142 10.256,2.445 15.035,4.728c1.513,0.723 3.257,1.156 4.515,2.186c3.68,3.015 7.126,6.313 10.744,9.406c2.684,2.295 5.856,4.123 8.164,6.732c3.868,4.371 7.758,8.889 10.656,13.912c3.771,6.537 7.295,13.395 9.627,20.539c3.006,9.209 4.804,18.82 6.978,28.291c2.228,9.709 4.277,19.454 2.967,29.535c-0.163,1.255 -0.022,2.55 -0.022,3.827c1.337,-1.892 1.924,-3.931 2.573,-5.95c1.306,-4.063 2.014,-8.48 4.101,-12.098c4.525,-7.844 9.632,-15.367 14.746,-22.854c4.907,-7.184 8.429,-14.999 11.039,-23.216c1.817,-5.722 2.785,-11.719 4.695,-17.403c2.55,-7.587 5.182,-15.216 8.666,-22.396c2.397,-4.941 3.243,-9.91 3.719,-15.175c0.557,-6.162 1.336,-12.305 2.082,-18.448c0.277,-2.282 0.88,-4.529 1.074,-6.815c0.428,-5.056 0.692,-10.127 1.02,-15.192c0.71,-10.957 2.158,-21.931 1.902,-32.865c-0.22,-9.377 -2.413,-18.705 -3.648,-28.066c-0.093,-0.703 0.504,-1.499 0.786,-2.271z"/>
    <path stroke="null" fill="#000000" id="svg_8" d="m70.088341,160.772062c-5.812,1.015 -11.624,2.029 -18.246,3.185c0,1.339 -0.134,3.634 0.027,5.907c0.368,5.192 -2.483,7.3 -7.247,5.299c-2.92,-1.227 -4.6,-2.357 -4.039,-6.514c0.969,-7.18 0.445,-14.555 0.674,-21.844c0.064,-2.034 0.423,-4.09 0.901,-6.075c1.833,-7.61 3.807,-15.185 5.65,-22.792c0.824,-3.4 0.864,-7.129 2.322,-10.206c2.338,-4.935 2.693,-10.895 7.233,-14.722c0.477,-0.402 1.182,-0.782 1.769,-0.765c5.299,0.153 11.155,7.262 10.326,12.498c-0.887,5.599 0.483,10.697 3.068,15.643c0.686,1.311 0.281,3.168 0.888,4.55c0.841,1.916 2.37,3.527 3.231,5.437c1.195,2.652 2.029,5.466 3.046,8.201c0.454,1.221 0.952,2.428 1.475,3.622c0.228,0.519 0.895,1.052 0.811,1.469c-0.806,4.025 2.39,7.254 2.379,10.806c-0.013,4.153 1.453,7.772 2.163,11.644c0.472,2.576 1.046,5.216 0.904,7.79c-0.081,1.457 -1.296,3.09 -2.463,4.117c-0.407,0.358 -2.238,-0.801 -3.358,-1.384c-1.195,-0.623 -2.237,-1.633 -3.488,-2.042c-4.766,-1.558 -4.144,-5.704 -4.873,-9.338c-0.396,-1.977 -1.503,-3.811 -2.289,-5.709c-0.287,0.408 -0.575,0.816 -0.864,1.223zm-10.049,-36.86c-0.585,0.094 -1.171,0.188 -1.756,0.282c-1.443,5.882 -3.014,11.737 -4.277,17.657c-0.675,3.164 -0.964,6.433 -1.154,9.671c-0.131,2.232 0.618,3.146 3.16,1.854c3.982,-2.025 8.212,-3.564 12.372,-5.324c1.262,-9.625 -4.373,-16.563 -8.345,-24.14z"/>
    <path stroke="null" fill="#000000" id="svg_9" d="m135.486341,107.363062c2.509,-1.093 4.489,-2.507 6.615,-2.781c7.261,-0.937 14.26,-2.675 20.811,-5.926c1.406,-0.698 3.169,-2.119 3.4,-3.446c0.496,-2.846 2.107,-3.194 4.545,-3.229c0.843,3.001 2.687,3.848 5.88,3.481c4.684,-0.539 9.628,-1.119 14.13,-0.148c3.098,0.668 6.152,3.517 8.288,6.152c2.434,3.003 0.512,6.508 -3.972,7.063c-5.684,0.703 -11.47,0.868 -17.204,0.786c-3.733,-0.053 -5.559,1.513 -5.012,5.297c0.164,1.136 0.068,2.317 0.021,3.474c-0.018,0.451 -0.471,1.157 -0.314,1.303c3.372,3.124 2.533,7.871 4.5,11.516c0.275,0.509 0.767,0.944 0.902,1.479c0.754,2.981 1.984,5.976 2.015,8.976c0.064,6.314 -0.56,12.634 -0.801,18.955c-0.069,1.801 0.495,3.659 0.235,5.411c-0.208,1.399 -1.039,3.631 -1.924,3.804c-1.693,0.332 -3.725,-0.285 -5.423,-0.981c-1.66,-0.68 -3.095,-1.926 -4.593,-2.974c-0.456,-0.319 -1.029,-0.749 -1.147,-1.227c-1.376,-5.561 -1.753,-11.142 -0.934,-16.878c0.765,-5.358 2.395,-10.77 -0.41,-16.176c-0.867,-1.671 0.653,-4.474 -2.399,-5.24c0.486,-0.527 0.972,-1.055 1.372,-1.488c-0.846,-3.458 -1.783,-7.291 -2.766,-11.312c-8.504,0.763 -17.629,2.588 -25.815,-5.891z"/>
    <path stroke="null" fill="#000000" id="svg_10" d="m109.433341,166.065062c-0.268,-7.129 -0.54,-14.258 -0.798,-21.387c-0.016,-0.451 0.01,-0.921 0.123,-1.355c1.328,-5.132 -0.078,-10.07 -0.58,-15.152c-0.591,-5.976 -3.04,-12.08 -0.252,-18.256c0.82,-1.817 1.377,-3.995 3.483,-3.275c1.526,0.522 3.189,2.512 3.569,4.133c0.843,3.598 0.4,7.524 1.407,11.052c2.564,8.98 5.432,17.898 5.315,27.335c-0.069,5.595 -0.013,11.106 1.042,16.633c0.454,2.379 -3.288,4.116 -6.058,2.945c-2.021,-0.854 -3.969,-1.882 -5.949,-2.832c-0.435,0.052 -0.868,0.106 -1.302,0.159z"/>
    <path stroke="null" fill="#000000" id="svg_11" d="m101.936341,87.580062c-1.131,-4.904 2.495,-6.807 4.96,-9.327c1.559,-1.593 2.828,-3.018 5.804,-2.567c4.295,0.65 7.042,5.952 6.324,9.631c-0.788,4.032 -2.613,7.222 -6.05,9.647c-2.156,1.522 -4.241,1.771 -5.901,0.019c-2.141,-2.259 -7.056,-2.846 -5.137,-7.403z"/>
   </g>
  </g>
 </g>
</svg>