<?xml version="1.0" encoding="utf-8"?>
<!-- Generator: Adobe Illustrator 20.1.0, SVG Export Plug-In . SVG Version: 6.00 Build 0)  -->
<svg version="1.1" id="Capa_1" xmlns="http://www.w3.org/2000/svg" xmlns:xlink="http://www.w3.org/1999/xlink" x="0px" y="0px"
	 viewBox="0 0 431.287 700.179" enable-background="new 0 0 431.287 700.179" xml:space="preserve">
<g>
	<path d="M374.5,242.93c-0.246,1.812-0.926,4.191-0.758,6.508c0.111,1.528,1.081,3.667,2.303,4.296
		c2.317,1.193,4.921,2.712,7.848,0.862c0.53-0.335,1.871,0.612,3.237,1.113c5.952-6.23,7.559-13.989,6.331-22.604
		c-0.064-0.448-0.12-0.944,0.002-1.365c1.686-5.807,3.837-11.522,4.976-17.432c0.913-4.738,1.702-9.85-1.495-14.34
		c-4.039,1.089-8.152,1.603-11.664,3.335c-2.752,1.358-5.554,3.818-6.931,6.507c-2.739,5.349-7.776,7.601-12.208,10.691
		c-3.516,2.451-7.262,4.59-11.01,6.68c-0.882,0.492-2.185,0.229-3.294,0.314c0.033-1.25-0.459-3.047,0.183-3.664
		c5.54-5.32,11.06-10.707,17.049-15.497c3.795-3.035,8.484-4.926,12.565-7.642c2.115-1.408,3.782-3.491,5.647-5.274
		c5.261-5.028,10.703-9.884,15.704-15.159c2.662-2.808,4.437-6.435,6.83-9.523c2.398-3.095,4.963-6.076,7.644-8.929
		c2.644-2.813,5.525-5.404,8.275-8.066c6.328,2.07,6.086,2.128,4.865,8.599c-1.12,5.936-4.678,10.376-7.815,15.155
		c-1.721,2.623-3.369,5.309-4.837,8.08c-2.245,4.241-3.881,8.875-6.593,12.774c-1.833,2.635-2.437,5.217-2.836,8.155
		c-0.134,0.984-1.153,1.82-1.625,2.793c-0.946,1.951-2.449,3.908-2.574,5.934c-0.75,12.142-3.013,23.969-6.169,35.697
		c-0.918,3.409-0.817,7.003-3.329,9.94c-5.142,6.008-8.314,13.065-11.107,20.434c-1.855,4.893-4.786,9.405-7.47,13.95
		c-4.177,7.072-9.001,13.799-12.697,21.104c-2.752,5.439-5.344,10.899-9.062,15.743c-2.21,2.879-4.722,5.542-6.757,8.534
		c-3.21,4.719-6.314,9.531-9.132,14.491c-3.57,6.283-6.986,12.668-10.113,19.18c-1.484,3.091-2.165,6.571-3.173,9.885
		c-1.225,4.029-2.412,8.069-3.893,13.038c2.791-0.727,5.134-1.4,7.509-1.927c1.096-0.243,2.388-0.568,3.361-0.217
		c2.699,0.973,5.322,2.195,7.871,3.518c0.657,0.341,1.382,1.499,1.269,2.139c-0.142,0.802-0.984,1.863-1.751,2.112
		c-10.077,3.264-20.194,6.406-30.303,9.568c-0.55,0.172-1.123,0.306-1.695,0.373c-7.329,0.857-14.645,2.119-21.997,2.397
		c-4.932,0.187-9.356,1.385-13.909,2.992c-2.379,0.839-5.236,0.279-7.872,0.445c-3.496,0.22-7.029,0.28-10.466,0.875
		c-3.611,0.625-7.088,2.045-10.703,2.621c-1.527,0.243-3.308-1.304-4.884-1.146c-6.081,0.61-12.121,1.607-18.184,2.409
		c-7.42,0.983-14.837,2.01-22.276,2.828c-3.452,0.379-7.242-0.509-10.379,0.596c-9.221,3.248-18.718,0.387-27.987,1.97
		c-3.512,0.6-7.256-0.12-10.892-0.288c-2.665-0.124-5.327-0.329-8.049-0.502c-0.077,1.19-0.334,2.396-0.164,3.538
		c0.109,0.728,0.896,1.971,1.301,1.94c2.835-0.214,5.959,0.617,8.296-1.865c0.205-0.218,0.546-0.309,0.892-0.496
		c-0.203,4.011,0.347,4.311,5.388,2.93c-0.556-0.899-1.084-1.754-2.141-3.462c2.452,1.143,4.056,1.891,5.719,2.666
		c2.066-2.334,4.341-2.487,7.019-0.308c0.677,0.551,3.038,0.376,3.108,0.119c0.748-2.733,2.443-1.518,4.111-1.363
		c4.507,0.419,9.038,0.574,13.558,0.861c0.669,0.043,1.36,0.424,1.987,0.322c2.12-0.346,4.216-0.84,7.253-1.47
		c1.837,1.436,4.607,2.146,6.509-1.148c1.643-1.15,3.399,2.62,4.37-0.138c2.527,0,5.077,0.208,7.58-0.045
		c4.777-0.481,9.516-1.353,14.294-1.825c5.106-0.505,10.261-0.548,15.356-1.13c7.541-0.861,15.034-2.152,22.575-3.015
		c7.62-0.872,15.284-1.357,22.91-2.18c5.698-0.615,11.446-1.134,17.031-2.344c8.345-1.808,16.584-4.12,24.832-6.351
		c3.573-0.966,7.055-2.265,10.81-3.488c1.923,6.869-1.382,14.834,1.774,21.891c0,4.889-0.007,9.738,0.002,14.586
		c0.007,3.911-0.022,7.823,0.068,11.732c0.1,4.357,0.365,8.709,0.467,13.066c0.101,4.299-0.13,8.616,0.177,12.897
		c0.426,5.927,1.276,11.823,1.832,17.742c0.324,3.455,0.553,6.929,0.607,10.398c0.109,7.041-0.201,14.099,0.183,21.122
		c0.284,5.195,1.391,10.345,2.132,15.516c0.032,0.224,0.163,0.494,0.083,0.666c-2.563,5.5,0.903,10.925,0.18,16.535
		c-0.553,4.293,0.958,8.837,1.42,13.284c0.224,2.16,0.215,4.352,0.195,6.529c-0.063,6.645-0.293,13.291-0.239,19.935
		c0.033,4.006,0.486,8.008,0.726,12.013c0.326,5.437,1.062,10.9,0.762,16.304c-0.156,2.809-2.087,5.55-3.346,8.261
		c-3.72,8.005-9.748,14.346-15.661,20.648c-2.405,2.564-6.107,3.971-9.332,5.692c-4.649,2.482-9.503,4.592-14.083,7.19
		c-5.108,2.898-9.775,6.66-15.06,9.135c-5.455,2.555-11.873,2.916-16.708,7.08c-0.495,0.426-1.256,0.721-1.91,0.754
		c-3.971,0.199-7.994-0.019-11.906,0.547c-2.984,0.432-5.836,1.798-8.734,2.784c-4.036,1.373-7.974,3.334-12.121,3.986
		c-3.012,0.473-6.284-0.836-9.457-1.213c-1.456-0.173-2.954-0.076-4.428,0.003c-4.608,0.247-9.42-0.182-13.75,1.058
		c-3.247,0.93-5.239-0.55-7.81-1.17c-1.45-0.35-3.119,0.286-4.694,0.359c-9.484,0.438-18.757-0.57-27.613-4.222
		c-0.933-0.385-1.7-1.161-2.623-1.582c-2.237-1.019-4.537-1.9-6.783-2.901c-4.755-2.119-9.514-4.23-14.223-6.447
		c-1.622-0.764-3.039-1.963-4.656-2.742c-5.259-2.536-10.732-4.675-15.806-7.53c-4.47-2.515-8.365-6.042-12.8-8.631
		c-3.037-1.774-6.508-2.892-9.894-3.955c-2.589-0.813-4.557-3.334-4.368-6.33c0.031-0.49-0.284-1.033-0.529-1.505
		c-1.966-3.785-4.403-7.4-5.817-11.379c-1.622-4.565-2.325-9.455-3.463-14.195c-0.678-2.827-1.511-5.62-2.122-8.461
		c-1.894-8.8-3.991-17.569-5.483-26.439c-1.389-8.262-2.029-16.647-3.156-24.956c-0.386-2.848-1.069-5.693-1.996-8.409
		c-0.288-0.845-1.798-1.736-2.797-1.796c-4.778-0.284-9.572-0.334-14.361-0.37c-1.859-0.014-3.735,0.431-5.578,0.303
		c-2.61-0.182-5.358-0.262-7.764-1.153c-9.229-3.419-19.228-5.36-26.914-12.002c-4.758-4.112-8.854-8.989-13.248-13.523
		c0.874-3.287-1.935-4.529-3.402-6.646c-1.449-2.093-2.744-4.303-2.586-7.511c0.156-3.159-2.121-6.385-3.05-9.661
		c-2.035-7.171-3.402-14.44-2.916-21.977c0.255-3.961-0.194-7.99,0.316-11.904c0.467-3.585,1.504-7.171,2.816-10.553
		c1.906-4.912,4.295-9.636,6.46-14.448c1.067-2.371,2.095-4.759,3.335-7.582c0.33,0.261-0.082-0.065-0.493-0.39
		c2.094-3.221,4.067-6.528,6.306-9.644c3.42-4.76,6.406-10.089,10.717-13.88c4.538-3.992,9.761-7.569,17.068-5.168
		c4.21,1.383,9.159,0.842,13.752,0.637c4.582-0.205,8.545,0.519,12.078,3.726c3.453,3.134,5.999,2.5,8.48-1.521
		c0.334-0.542,0.952-1.171,1.519-1.262c3.363-0.543,6.752-1.33,10.127-1.305c6.883,0.051,13.76,0.714,20.645,0.83
		c3.637,0.062,7.282-0.557,10.929-0.739c1.325-0.066,2.666,0.277,4.004,0.379c6.143,0.467,12.281,1.072,18.433,1.297
		c2.693,0.098,5.409-0.801,8.126-0.886c6.803-0.213,13.098-4.065,20.28-2.278c2.882,0.717,6.241-0.481,9.382-0.817
		c5.827-0.622,11.881-0.465,17.423-2.072c7.286-2.112,14.705-1.598,22.017-2.611c7.25-1.004,14.647-0.944,21.813-1.341
		c-0.091-0.567-0.439-1.326-0.28-1.958c1.47-5.836,4.183-10.883,8.216-15.524c3.136-3.608,5.033-8.292,7.483-12.497
		c1.678-2.882,3.364-5.759,5.037-8.644c2.056-3.545,4.112-7.09,6.148-10.647c3.062-5.35,6.084-10.723,9.163-16.062
		c4.425-7.673,8.703-15.44,13.381-22.956c5.759-9.252,12.007-18.199,17.77-27.448c3.702-5.942,6.853-12.225,10.356-18.295
		c3.351-5.808,6.812-11.554,10.276-17.297c1.586-2.63,3.166-5.281,4.979-7.755c2.49-3.398,5.099-6.724,7.889-9.876
		c0.599-0.677,2.779-1.032,3.204-0.576c1.072,1.149,1.606,2.825,2.231,4.341c0.093,0.226-0.695,0.715-0.723,1.107
		c-0.14,1.982-0.86,4.334-0.06,5.872c1.126,2.164,3.609,1.921,5.812,0.878c2.665-1.261,5.704-1.987,7.998-3.718
		C367.798,239.982,370.682,239.314,374.5,242.93z M192.612,673.832c-0.063,0.287-0.125,0.573-0.188,0.86
		c2.153-0.67,5.423-2.555,6.256-1.789c2.747,2.527,5.295,1.112,7.915,0.759c1.962-0.265,3.874-0.899,6.491-1.535
		c0.018-0.037,0.42-0.841,0.82-1.642c2.112,1.632,5.013,1.642,5.076-0.054c0.073-1.985-0.948-4.241-2.109-5.967
		c-0.924-1.374-2.769-2.128-4.371-3.276c-0.949,2.443-2.825,1.963-4.96,0.956c-1.232-0.581-2.933-1.488-3.91-1.065
		c-4.278,1.851-8.084-0.498-11.926-1.236c-3.145-0.605-6.217-2.1-8.868-4.72c-2.304-2.277-6.2-2.888-9.268-4.474
		c-1.347-0.696-2.419-1.953-3.559-3.015c-2.087-1.944-3.948-4.188-6.238-5.845c-3.886-2.811-8.277-4.963-11.984-7.972
		c-2.535-2.057-4.374-5.026-6.313-7.739c-0.815-1.141-0.7-3.337-1.675-3.904c-3.638-2.113-4.252-6.092-5.367-9.243
		c-3.632-10.258-6.497-20.794-9.473-31.276c-1.787-6.292-3.374-12.649-4.772-19.039c-0.77-3.519-1.019-7.158-1.397-10.755
		c-0.366-3.473-0.565-6.963-0.895-10.44c-0.272-2.862,1.197-6.352-2.44-7.636c0.167-1.734,0.484-3.173,0.411-4.593
		c-0.225-4.358-0.513-8.718-0.956-13.058c-0.185-1.811-0.94-3.557-1.236-5.365c-0.614-3.752-1.322-7.512-1.562-11.295
		c-0.214-3.372,0.469-6.807,0.197-10.169c-0.612-7.566-1.772-15.09-2.322-22.66c-0.402-5.532-0.16-11.112-3.203-16.092
		c-0.167-0.273-0.174-0.665-0.189-1.005c-0.199-4.582-1.556-6.011-6.061-6.357c2.74,6.142,2.74,6.142-0.601,6.414
		c-0.163,1.266-0.447,2.531-0.469,3.799c-0.157,9.202-0.14,18.409-0.447,27.605c-0.109,3.271-1.372,6.517-1.369,9.774
		c0.003,3.412,0.97,6.814,1.382,10.236c0.793,6.591,1.451,13.199,2.239,19.791c0.749,6.264,1.475,12.535,2.432,18.769
		c0.854,5.564,2.025,11.08,3.011,16.625c0.118,0.666-0.14,1.393-0.067,2.075c0.538,5.02,0.973,10.057,1.731,15.044
		c0.489,3.216,1.433,6.366,2.244,9.528c0.445,1.733,1.031,3.431,1.562,5.141c0.323,1.04,0.779,2.054,0.972,3.117
		c0.572,3.152,0.735,6.413,1.627,9.465c1.269,4.34,3.476,8.428,4.524,12.806c3.23,13.49,10.357,24.634,20.189,34.08
		c4.512,4.335,9.708,7.961,14.613,11.884c1.568,1.254,3.046,2.76,4.828,3.579c3.939,1.811,8.305,2.815,12.009,4.983
		c3.523,2.062,7.14,2.82,11.013,3.444C188.248,671.722,190.398,672.976,192.612,673.832z M65.794,436.829
		c-3.636-2.79-7.839-2.927-12.17-1.26c-6.92,2.663-10.651,8.776-14.114,14.592c-3.715,6.241-6.171,13.234-9.14,19.915
		c-0.691,1.554-1.581,3.133-1.775,4.773c-0.53,4.481-0.757,9-1.065,13.506c-0.227,3.315-0.728,6.657-0.5,9.945
		c0.287,4.153,1.171,8.266,1.855,12.387c0.087,0.526,0.526,0.993,0.794,1.491c1.174,2.18,2.364,4.352,3.508,6.547
		c0.472,0.906,0.621,2.093,1.302,2.757c3.014,2.942,5.873,6.178,9.327,8.509c9.668,6.523,20.47,7.71,31.716,5.453
		c0.927-0.186,2.118-1.523,2.289-2.485c0.33-1.863,0.293-3.894-0.083-5.757c-0.68-3.372-1.981-6.627-2.552-10.011
		c-1.091-6.454-1.791-12.973-2.769-19.448c-0.725-4.798-1.821-9.546-2.408-14.358c-0.597-4.889-0.572-9.855-1.202-14.737
		c-0.45-3.49-1.127-7.063-2.446-10.296c-1.324-3.245,0.698-6.52-1.476-10.088C63.36,445.759,65.321,441.133,65.794,436.829z
		 M345.767,246.82c-1.415,2.452-2.192,3.708-2.882,5.01c-2.263,4.269-4.437,8.586-6.753,12.826
		c-2.901,5.313-5.882,10.584-8.876,15.845c-3.698,6.497-7.324,13.04-11.223,19.415c-2.112,3.455-4.889,6.499-7.077,9.913
		c-4.288,6.69-8.362,13.518-12.546,20.275c-3.997,6.454-8.086,12.852-12.014,19.348c-3.472,5.742-6.747,11.602-10.163,17.379
		c-3.923,6.635-7.862,13.262-11.878,19.84c-2.164,3.544-4.842,6.814-6.667,10.513c-1.731,3.507-2.652,7.414-4.193,11.918
		c3.669-0.595,6.665-1.495,9.649-1.453c3.184,0.044,5.288-1.145,6.801-3.686c1.132-1.901,2.089-3.906,3.124-5.865
		c0.629,0.555,1.257,1.109,1.886,1.664c-0.215-0.616-0.788-1.405-0.587-1.82c1.625-3.359,3.347-6.675,5.14-9.948
		c0.909-1.66,2.132-3.15,3.022-4.819c1.026-1.924,1.595-4.124,2.791-5.918c5.336-8.011,10.805-15.934,16.274-23.856
		c1.261-1.827,3-3.375,4.003-5.318c1.324-2.564,1.797-5.588,3.233-8.069c6.085-10.513,12.325-20.94,18.642-31.316
		c3.96-6.504,8.143-12.873,12.257-19.283c1.702-2.652,3.484-5.252,5.229-7.876c2.929-4.406,5.836-8.828,8.792-13.216
		c2.753-4.086,5.881-7.975,6.855-13.59C353.052,254.755,347.884,254.15,345.767,246.82z M285.698,406.132
		c2.687-0.853,5.281-0.912,6.543-2.239c2.483-2.612,4.421-5.816,6.234-8.976c3.619-6.306,6.878-12.818,10.519-19.111
		c3.178-5.493,7.379-10.498,9.866-16.263c3.553-8.236,8.772-15.266,13.546-22.679c1.246-1.934,3.36-3.154,4.04-4.993
		c2.391-6.471,8.398-11.309,8.459-18.809c0.004-0.436,0.768-0.827,1.07-1.306c2.612-4.142,5.246-8.27,7.774-12.463
		c1.383-2.294,2.491-4.754,3.882-7.042c0.677-1.113,2.531-2.055,2.47-2.985c-0.463-7.157,6.276-10.436,8.564-16.205
		c1.671-4.213,5.98-7.379,9.134-11.037c-3.636-2.53-6.936-4.826-10.576-7.358c-0.397,0.758-1.047,1.904-1.609,3.093
		c-1.62,3.428-2.71,7.233-4.902,10.237c-5.063,6.938-9.16,14.364-12.918,22.04c-0.974,1.989-2.726,3.583-3.851,5.515
		c-1.746,3.001-2.826,6.483-4.955,9.15c-5.87,7.353-9.472,15.909-13.653,24.17c-2.91,5.75-5.768,11.526-8.744,17.241
		c-1.039,1.995-2.373,3.836-3.549,5.762c-2.996,4.904-5.871,9.885-9.003,14.701c-2.1,3.23-4.767,6.097-6.803,9.362
		c-3.167,5.077-6.097,10.307-8.952,15.568c-1.113,2.05-3.089,5.275-2.34,6.369C287.797,400.58,286.61,402.605,285.698,406.132z
		 M32.337,424.245c-2.121,1.743-4.524,3.011-5.887,4.995c-2.353,3.426-4.087,7.282-6.001,10.999
		c-0.217,0.421,0.053,1.109,0.139,1.667c0.605,3.909-0.483,7.223-2.748,10.516c-1.131,1.644-0.922,4.21-1.518,7.431
		c-2.306,1.988-5.142,5.039-3.098,9.978c0.141,0.342-0.041,0.983-0.299,1.3c-3.863,4.738-1.115,10.027-1.992,15.716
		c2.948-1.616,5.093-2.793,6.817-3.738c0.214-3.834,0.419-7.515,0.658-11.795c-3.637-1.747-2.378-4.12,0.914-6.125
		c-1.386-1.118-2.336-1.885-3.287-2.651c3.517,0.286,5.201-1.004,6.584-3.814c1.33-2.702,3.611-4.921,5.128-7.552
		c1.076-1.864,1.576-4.061,2.21-5.776c1.632-2.807,3.279-5.333,4.61-8.015c1.402-2.826,3.363-5.21,5.865-6.927
		c4.202-2.882,8.668-5.379,13.214-8.156c1.125,0.207,2.828,0.514,4.529,0.833c2.633,0.493,5.264,1.327,7.896,1.332
		c1.087,0.002,2.793-1.598,3.117-2.773c0.444-1.612-0.738-2.755-2.757-2.484c-0.605,0.081-1.29-0.319-1.919-0.552
		c-3.224-1.196-6.564-3.664-9.635-3.361c-6.743,0.664-13.415,2.497-19.953,4.409C33.582,420.095,30.455,421.855,32.337,424.245z
		 M15.861,493.772c-0.9,1.061-1.868,2.087-2.69,3.219c-0.434,0.597-0.613,1.378-0.907,2.076c3.271,1.354-0.552,6.59,3.973,7.258
		c-0.971,3.833,0.662,7.199,1.881,10.646c0.099,0.281-0.087,0.664-0.145,1.02c4.843-1.135,4.988-1.922,3.339-6.639
		c-1.369-3.917-2.775-8.142-2.586-12.157c0.109-2.305,0.955-3.699-1.934-4.249c0.627-1.034,1.646-2.001,1.455-2.536
		c-0.505-1.411-1.418-2.737-2.421-3.876c-0.334-0.379-1.818-0.401-2.106-0.045c-0.935,1.158-1.56,2.566-2.304,3.878
		C12.648,492.756,13.88,493.145,15.861,493.772z M130.349,433.64c1.154-3.771-1.449-3.902-3.127-4.132
		c-4.591-0.63-9.227-1.175-13.849-1.208c-1.911-0.014-3.831,1.364-5.747,2.109c0.156,0.39,0.312,0.781,0.468,1.171
		c1.227-0.074,2.457-0.228,3.682-0.2c1.222,0.028,2.698-0.157,3.616,0.439c4.271,2.769,7.434,2.619,10.363-0.525
		C127.219,432.042,128.575,432.735,130.349,433.64z M96.591,429.778c0.081,0.508,0.162,1.017,0.243,1.525
		c2.081,0.262,4.162,0.523,7.054,0.887c-0.806-1.68-1.44-4.008-2.004-3.991C100.105,428.253,98.354,429.185,96.591,429.778z
		 M85.555,425.805c0,1.373-0.509,3.373,0.112,3.828c1.091,0.799,2.87,0.724,4.373,0.814c0.202,0.012,0.645-1.15,0.639-1.765
		c-0.003-0.306-0.743-0.653-1.195-0.898C88.524,427.263,87.533,426.795,85.555,425.805z"/>
	<path d="M192.508,361.484c-0.533-2.075-1.206-3.729-1.349-5.427c-0.497-5.913-0.673-11.854-1.224-17.761
		c-0.884-9.474,0.128-19.122-2.721-28.425c-1.19-3.884-2.134-7.853-2.995-11.825c-0.762-3.514-0.849-7.22-1.957-10.604
		c-1.906-5.82-4.443-11.431-6.575-17.181c-0.9-2.428-1.197-5.095-2.221-7.456c-0.961-2.217-2.279-4.385-3.865-6.203
		c-3.234-3.708-4.945-8.536-9.603-11.297c-2.93-1.737-4.592-5.489-7.343-7.685c-3.039-2.425-5.376-5.512-8.258-8.078
		c-2.61-2.324-6.388-2.781-8.322-5.932c-0.373-0.608-1.662-0.803-2.562-0.914c-3.834-0.472-7.693-0.753-11.517-1.284
		c-1.895-0.263-4.258-0.356-5.491-1.508c-2.488-2.324-5.528-1.664-8.211-2.585c-3.941-1.353-7.65-3.383-11.453-5.137
		c-0.201-0.093-0.364-0.454-0.516-0.437c-4.571,0.521-7.385-3.047-10.099-5.411c-2.785-2.425-5.805-3.33-8.844-4.819
		c-3.491-1.711-6.377-4.638-9.59-6.947c-1.023-0.735-2.349-1.049-3.367-1.789c-1.907-1.385-3.808-2.82-5.494-4.458
		c-1.703-1.655-2.331-4.833-5.815-3.679c-0.248,0.082-0.799-0.136-0.916-0.364c-2.18-4.271-6.853-5.256-10.27-7.885
		c-6.288-4.839-12.092-10.082-15.645-17.481c-1.738-3.619-5.28-6.58-6.263-10.3c-1.18-4.467-4.657-8.002-4.382-13.086
		c0.212-3.931-1.081-7.921-1.399-11.91c-0.427-5.357-0.633-10.735-0.79-16.108c-0.104-3.553,0.157-7.116,0.056-10.669
		c-0.197-6.962,2.705-12.943,5.874-18.807c2.443-4.521,4.799-9.173,7.884-13.243c3.604-4.754,7.878-9.015,12.009-13.348
		c3.803-3.989,7.807-7.787,11.715-11.675c2.774-2.76,5.562-5.506,8.299-8.302c6.517-6.656,13.183-13.115,21.406-17.72
		c4.336-2.428,8.522-5.135,12.926-7.428c1.789-0.932,3.949-1.324,5.987-1.569c4.987-0.6,10.004-0.941,15-1.469
		c0.768-0.081,1.464-0.774,2.238-0.893c2.282-0.351,4.59-0.531,6.882-0.825c2.807-0.36,5.6-0.843,8.413-1.143
		c9.22-0.982,18.395-0.265,27.155,2.551c4.548,1.462,8.538,4.649,12.797,7.026c1.396,0.779,2.943,1.32,4.251,2.217
		c2.409,1.655,4.564,3.709,7.061,5.201c3.152,1.883,6.535,3.379,9.827,5.023c3.257,1.626,6.621,3.067,9.742,4.919
		c1.317,0.781,1.941,2.67,3.213,3.602c5.755,4.221,11.634,8.167,16.798,13.261c3.046,3.004,6.289,5.771,8.84,9.25
		c0.337,0.46,0.762,1.007,1.261,1.174c6.913,2.321,9.963,8.818,14.83,13.356c3.11,2.9,4.357,6.288,6.225,9.751
		c1.879,3.484,2.992,7.185,3.948,10.697c1.994,7.327,2.69,15.005,3.969,22.53c0.29,1.707,0.882,3.362,1.169,5.069
		c1.089,6.48,3.217,13.047,2.785,19.434c-0.312,4.62,3.121,9.28-0.178,13.867c-0.518,0.72,0.695,2.519,0.691,3.817
		c-0.005,1.684-0.397,3.373-0.689,5.048c-0.096,0.552-0.602,1.077-0.577,1.599c0.205,4.412,0.807,8.834,0.629,13.226
		c-0.106,2.614-1.811,5.137-2.084,7.775c-0.889,8.6-1.374,17.241-2.169,25.852c-0.431,4.664-1.098,9.31-1.793,13.944
		c-1.667,11.122-7.331,20.801-11.207,31.131c-2.138,5.696-3.098,11.826-4.746,17.716c-2.447,8.747-4.996,17.403-10.374,25.022
		c-3.846,5.449-6.885,11.462-10.401,17.151c-1.7,2.75-3.923,5.194-5.469,8.017c-3.5,6.393-6.62,12.994-10.101,19.398
		c-2.622,4.823-5.501,9.511-8.389,14.183c-1.689,2.732-3.601,5.328-5.478,7.938C193.475,361.439,192.838,361.402,192.508,361.484z
		 M250.399,110.102c-3.225-1.678-3.465-5.303-3.11-7.969c0.435-3.264-0.608-5.82-1.519-8.585c-0.734-2.228-2.457-4.439-2.336-6.579
		c0.3-5.327-3.193-8.942-4.953-13.326c-1.198-2.985-2.477-5.775-5.597-7.318c-1.623-0.803-3.232-1.795-4.552-3.02
		c-3.157-2.928-5.413-6.89-9.903-8.268c-0.492-0.151-0.804-1.052-1.1-1.654c-1.55-3.154-3.916-5.138-7.183-6.696
		c-2.732-1.303-4.836-3.965-7.14-6.109c-2.204-2.051-4.021-4.666-6.513-6.231c-6.078-3.819-12.417-7.231-18.719-10.683
		c-2.137-1.17-4.616-1.739-6.69-2.994c-2.504-1.515-4.723-3.496-7.106-5.218c-1.358-0.981-2.702-2.09-4.228-2.697
		c-1.5-0.596-3.734-0.069-4.76-1.005c-4.189-3.824-9.226-1.57-13.799-2.268c-3.224-0.492-6.63,0.223-9.955,0.383
		c-2.305,0.111-4.677-0.119-6.905,0.348c-7.459,1.567-14.924,3.168-22.274,5.171c-4.733,1.29-9.27,3.302-13.885,5.015
		c-0.301,0.112-0.529,0.432-0.782,0.664c-2.182,2.005-4.347,4.027-6.547,6.012c-1.036,0.934-2.156,1.774-3.204,2.695
		c-3.036,2.668-6.163,5.244-9.058,8.059c-5.374,5.226-10.338,10.908-15.989,15.804c-4.193,3.632-8.671,6.521-12.243,11.224
		c-4.47,5.885-8.189,12.039-11.364,18.55c-2.146,4.4-4.248,9.177-4.729,13.951c-0.725,7.194-0.144,14.537,0.115,21.808
		c0.316,8.844,1.445,17.37,5.531,25.624c3.448,6.965,6.629,13.846,12.552,19.05c3.308,2.906,6.567,5.904,10.123,8.48
		c3.556,2.576,7.963,4.146,11.077,7.121c3.929,3.753,8.347,6.672,12.769,9.644c3.444,2.315,7.052,4.411,10.71,6.377
		c5.825,3.132,9.513,9.796,16.95,10.235c4.435,4.51,11.041,2.389,16.1,5.29c2.623,1.504,5.869,2.781,8.797,2.708
		c5.71-0.142,10.256,2.445,15.035,4.728c1.513,0.723,3.257,1.156,4.515,2.186c3.68,3.015,7.126,6.313,10.744,9.406
		c2.684,2.295,5.856,4.123,8.164,6.732c3.868,4.371,7.758,8.889,10.656,13.912c3.771,6.537,7.295,13.395,9.627,20.539
		c3.006,9.209,4.804,18.82,6.978,28.291c2.228,9.709,4.277,19.454,2.967,29.535c-0.163,1.255-0.022,2.55-0.022,3.827
		c1.337-1.892,1.924-3.931,2.573-5.95c1.306-4.063,2.014-8.48,4.101-12.098c4.525-7.844,9.632-15.367,14.746-22.854
		c4.907-7.184,8.429-14.999,11.039-23.216c1.817-5.722,2.785-11.719,4.695-17.403c2.55-7.587,5.182-15.216,8.666-22.396
		c2.397-4.941,3.243-9.91,3.719-15.175c0.557-6.162,1.336-12.305,2.082-18.448c0.277-2.282,0.88-4.529,1.074-6.815
		c0.428-5.056,0.692-10.127,1.02-15.192c0.71-10.957,2.158-21.931,1.902-32.865c-0.22-9.377-2.413-18.705-3.648-28.066
		C249.52,111.67,250.117,110.874,250.399,110.102z"/>
	<path d="M81.661,146.053c-5.812,1.015-11.624,2.029-18.246,3.185c0,1.339-0.134,3.634,0.027,5.907
		c0.368,5.192-2.483,7.3-7.247,5.299c-2.92-1.227-4.6-2.357-4.039-6.514c0.969-7.18,0.445-14.555,0.674-21.844
		c0.064-2.034,0.423-4.09,0.901-6.075c1.833-7.61,3.807-15.185,5.65-22.792c0.824-3.4,0.864-7.129,2.322-10.206
		c2.338-4.935,2.693-10.895,7.233-14.722c0.477-0.402,1.182-0.782,1.769-0.765c5.299,0.153,11.155,7.262,10.326,12.498
		c-0.887,5.599,0.483,10.697,3.068,15.643c0.686,1.311,0.281,3.168,0.888,4.55c0.841,1.916,2.37,3.527,3.231,5.437
		c1.195,2.652,2.029,5.466,3.046,8.201c0.454,1.221,0.952,2.428,1.475,3.622c0.228,0.519,0.895,1.052,0.811,1.469
		c-0.806,4.025,2.39,7.254,2.379,10.806c-0.013,4.153,1.453,7.772,2.163,11.644c0.472,2.576,1.046,5.216,0.904,7.79
		c-0.081,1.457-1.296,3.09-2.463,4.117c-0.407,0.358-2.238-0.801-3.358-1.384c-1.195-0.623-2.237-1.633-3.488-2.042
		c-4.766-1.558-4.144-5.704-4.873-9.338c-0.396-1.977-1.503-3.811-2.289-5.709C82.238,145.238,81.95,145.646,81.661,146.053z
		 M71.612,109.193c-0.585,0.094-1.171,0.188-1.756,0.282c-1.443,5.882-3.014,11.737-4.277,17.657
		c-0.675,3.164-0.964,6.433-1.154,9.671c-0.131,2.232,0.618,3.146,3.16,1.854c3.982-2.025,8.212-3.564,12.372-5.324
		C81.219,123.708,75.584,116.77,71.612,109.193z"/>
	<path d="M147.059,92.644c2.509-1.093,4.489-2.507,6.615-2.781c7.261-0.937,14.26-2.675,20.811-5.926
		c1.406-0.698,3.169-2.119,3.4-3.446c0.496-2.846,2.107-3.194,4.545-3.229c0.843,3.001,2.687,3.848,5.88,3.481
		c4.684-0.539,9.628-1.119,14.13-0.148c3.098,0.668,6.152,3.517,8.288,6.152c2.434,3.003,0.512,6.508-3.972,7.063
		c-5.684,0.703-11.47,0.868-17.204,0.786c-3.733-0.053-5.559,1.513-5.012,5.297c0.164,1.136,0.068,2.317,0.021,3.474
		c-0.018,0.451-0.471,1.157-0.314,1.303c3.372,3.124,2.533,7.871,4.5,11.516c0.275,0.509,0.767,0.944,0.902,1.479
		c0.754,2.981,1.984,5.976,2.015,8.976c0.064,6.314-0.56,12.634-0.801,18.955c-0.069,1.801,0.495,3.659,0.235,5.411
		c-0.208,1.399-1.039,3.631-1.924,3.804c-1.693,0.332-3.725-0.285-5.423-0.981c-1.66-0.68-3.095-1.926-4.593-2.974
		c-0.456-0.319-1.029-0.749-1.147-1.227c-1.376-5.561-1.753-11.142-0.934-16.878c0.765-5.358,2.395-10.77-0.41-16.176
		c-0.867-1.671,0.653-4.474-2.399-5.24c0.486-0.527,0.972-1.055,1.372-1.488c-0.846-3.458-1.783-7.291-2.766-11.312
		C164.37,99.298,155.245,101.123,147.059,92.644z"/>
	<path d="M121.006,151.346c-0.268-7.129-0.54-14.258-0.798-21.387c-0.016-0.451,0.01-0.921,0.123-1.355
		c1.328-5.132-0.078-10.07-0.58-15.152c-0.591-5.976-3.04-12.08-0.252-18.256c0.82-1.817,1.377-3.995,3.483-3.275
		c1.526,0.522,3.189,2.512,3.569,4.133c0.843,3.598,0.4,7.524,1.407,11.052c2.564,8.98,5.432,17.898,5.315,27.335
		c-0.069,5.595-0.013,11.106,1.042,16.633c0.454,2.379-3.288,4.116-6.058,2.945c-2.021-0.854-3.969-1.882-5.949-2.832
		C121.873,151.239,121.44,151.293,121.006,151.346z"/>
	<path d="M113.509,72.861c-1.131-4.904,2.495-6.807,4.96-9.327c1.559-1.593,2.828-3.018,5.804-2.567
		c4.295,0.65,7.042,5.952,6.324,9.631c-0.788,4.032-2.613,7.222-6.05,9.647c-2.156,1.522-4.241,1.771-5.901,0.019
		C116.505,78.005,111.59,77.418,113.509,72.861z"/>
</g>
</svg>
